<?xml version="1.0" encoding="utf-8"?>
<!-- Generator: Adobe Illustrator 24.0.3, SVG Export Plug-In . SVG Version: 6.00 Build 0)  -->
<svg version="1.1" id="Capa_1" xmlns="http://www.w3.org/2000/svg" xmlns:xlink="http://www.w3.org/1999/xlink" x="0px" y="0px"
	 viewBox="0 0 141 147" style="enable-background:new 0 0 141 147;" xml:space="preserve">
<style type="text/css">
	.st0{fill:#F5846F;stroke:#F5846F;stroke-width:1.4286;stroke-miterlimit:10;}
	.st1{fill:none;stroke:#F5846F;stroke-width:1.4286;stroke-miterlimit:10;}
</style>
<g>
	<path class="st0" d="M76.9,134.1c0,3.5-2.8,6.4-6.4,6.4c-3.5,0-6.4-2.8-6.4-6.4c0-3.5,2.9-6.4,6.4-6.4
		C74,127.7,76.9,130.6,76.9,134.1z"/>
	<path class="st1" d="M115.2,70.3c0,24.7-20,44.7-44.7,44.7c-24.7,0-44.7-20-44.7-44.7s20-44.7,44.7-44.7
		C95.2,25.6,115.2,45.6,115.2,70.3z"/>
	<path class="st1" d="M25.8,70.3H6.7c0-35.2,28.6-63.8,63.8-63.8c35.2,0,63.8,28.6,63.8,63.8s-28.6,63.8-63.8,63.8"/>
	<path class="st1" d="M95.7,70.3c0,14.1-11.4,25.5-25.5,25.5c-14.1,0-25.5-11.4-25.5-25.5s11.4-25.5,25.5-25.5
		C84.3,44.8,95.7,56.2,95.7,70.3z"/>
</g>
</svg>
